<svg xmlns="http://www.w3.org/2000/svg" xmlns:xlink="http://www.w3.org/1999/xlink" viewBox="0,0,256,256" width="48px" height="48px" fill-rule="nonzero"><g fill="none" fill-rule="nonzero" stroke="none" stroke-width="1" stroke-linecap="butt" stroke-linejoin="miter" stroke-miterlimit="10" stroke-dasharray="" stroke-dashoffset="0" font-family="none" font-weight="none" font-size="none" text-anchor="none" style="mix-blend-mode: normal"><g transform="scale(5.33333,5.33333)"><path d="M24,4c-11.045,0 -20,8.954 -20,20c0,7.393 4.022,13.833 9.987,17.295l4.506,-7.783c-3.281,-1.904 -5.493,-5.446 -5.493,-9.512c0,-6.075 4.925,-11 11,-11c6.075,0 11,4.925 11,11c0,4.066 -2.212,7.608 -5.493,9.512l4.506,7.783c5.965,-3.462 9.987,-9.902 9.987,-17.295c0,-11.046 -8.955,-20 -20,-20z" fill-opacity="0.72941" fill="#ff0000"></path><path d="M30,24c0,-3.314 -2.687,-6 -6,-6c-3.313,0 -6,2.686 -6,6c0,2.556 1.601,4.733 3.852,5.597l-2.56,13.822c1.513,0.366 3.084,0.581 4.708,0.581c1.624,0 3.195,-0.215 4.707,-0.58l-2.56,-13.822c2.252,-0.865 3.853,-3.042 3.853,-5.598z" fill="#000000"></path></g></g></svg>